<?xml version="1.0" encoding="UTF-8" standalone="no"?>
<!-- Created with Inkscape (http://www.inkscape.org/) -->

<svg
   xmlns:osb="http://www.openswatchbook.org/uri/2009/osb"
   xmlns:dc="http://purl.org/dc/elements/1.1/"
   xmlns:cc="http://creativecommons.org/ns#"
   xmlns:rdf="http://www.w3.org/1999/02/22-rdf-syntax-ns#"
   xmlns:svg="http://www.w3.org/2000/svg"
   xmlns="http://www.w3.org/2000/svg"
   xmlns:sodipodi="http://sodipodi.sourceforge.net/DTD/sodipodi-0.dtd"
   xmlns:inkscape="http://www.inkscape.org/namespaces/inkscape"
   width="210mm"
   height="297mm"
   viewBox="0 0 744.09448819 1052.3622047"
   id="svg2"
   version="1.1"
   inkscape:version="0.91 r13725"
   sodipodi:docname="2_raw_enterprise.svg">
  <defs
     id="defs4">
    <linearGradient
       id="linearGradient11915"
       osb:paint="solid">
      <stop
         style="stop-color:#333333;stop-opacity:0;"
         offset="0"
         id="stop11917" />
    </linearGradient>
    <marker
       inkscape:stockid="Arrow1Lend"
       orient="auto"
       refY="0.0"
       refX="0.0"
       id="marker11724"
       style="overflow:visible;"
       inkscape:isstock="true">
      <path
         id="path11726"
         d="M 0.0,0.0 L 5.0,-5.0 L -12.5,0.0 L 5.0,5.0 L 0.0,0.0 z "
         style="fill-rule:evenodd;stroke:none;stroke-width:1pt;stroke-opacity:1;fill:#333333;fill-opacity:1"
         transform="scale(0.8) rotate(180) translate(12.5,0)" />
    </marker>
    <marker
       inkscape:stockid="SemiCircleIn"
       orient="auto"
       refY="0.0"
       refX="0.0"
       id="SemiCircleIn"
       style="overflow:visible"
       inkscape:isstock="true">
      <path
         id="path9974"
         d="M -0.37450702,-0.045692580 C -0.37450702,2.7143074 1.8654930,4.9543074 4.6254930,4.9543074 L 4.6254930,-5.0456926 C 1.8654930,-5.0456926 -0.37450702,-2.8056926 -0.37450702,-0.045692580 z "
         style="fill-rule:evenodd;stroke:none;stroke-width:1pt;stroke-opacity:1;fill:#333333;fill-opacity:1"
         transform="scale(0.6)" />
    </marker>
    <marker
       inkscape:stockid="RazorWire"
       id="RazorWire"
       refX="0"
       refY="0"
       orient="auto"
       style="overflow:visible"
       inkscape:isstock="true">
      <path
         id="path10028"
         transform="scale(0.8,0.8)"
         style="fill:#333333;fill-opacity:1;fill-rule:evenodd;stroke:none;stroke-width:0.1pt;stroke-opacity:1"
         d="M 0.022727273,-0.74009011 L 0.022727273,0.69740989 L -7.7585227,3.0099099 L 10.678977,3.0099099 L 3.4914773,0.69740989 L 3.4914773,-0.74009011 L 10.741477,-2.8963401 L -7.7272727,-2.8963401 L 0.022727273,-0.74009011 z " />
    </marker>
    <marker
       inkscape:stockid="Tail"
       orient="auto"
       refY="0.0"
       refX="0.0"
       id="marker11191"
       style="overflow:visible"
       inkscape:isstock="true">
      <g
         id="g11193"
         transform="scale(-1.2)"
         style="stroke:none;stroke-opacity:1;fill:#333333;fill-opacity:1">
        <path
           id="path11195"
           d="M -3.8048674,-3.9585227 L 0.54352094,0"
           style="fill:#333333;fill-rule:evenodd;stroke:none;stroke-width:0.8;stroke-linecap:round;stroke-opacity:1;fill-opacity:1" />
        <path
           id="path11197"
           d="M -1.2866832,-3.9585227 L 3.0617053,0"
           style="fill:#333333;fill-rule:evenodd;stroke:none;stroke-width:0.8;stroke-linecap:round;stroke-opacity:1;fill-opacity:1" />
        <path
           id="path11199"
           d="M 1.3053582,-3.9585227 L 5.6537466,0"
           style="fill:#333333;fill-rule:evenodd;stroke:none;stroke-width:0.8;stroke-linecap:round;stroke-opacity:1;fill-opacity:1" />
        <path
           id="path11201"
           d="M -3.8048674,4.1775838 L 0.54352094,0.21974226"
           style="fill:#333333;fill-rule:evenodd;stroke:none;stroke-width:0.8;stroke-linecap:round;stroke-opacity:1;fill-opacity:1" />
        <path
           id="path11203"
           d="M -1.2866832,4.1775838 L 3.0617053,0.21974226"
           style="fill:#333333;fill-rule:evenodd;stroke:none;stroke-width:0.8;stroke-linecap:round;stroke-opacity:1;fill-opacity:1" />
        <path
           id="path11205"
           d="M 1.3053582,4.1775838 L 5.6537466,0.21974226"
           style="fill:#333333;fill-rule:evenodd;stroke:none;stroke-width:0.8;stroke-linecap:round;stroke-opacity:1;fill-opacity:1" />
      </g>
    </marker>
    <marker
       inkscape:stockid="DotL"
       orient="auto"
       refY="0.0"
       refX="0.0"
       id="DotL"
       style="overflow:visible"
       inkscape:isstock="true">
      <path
         id="path9857"
         d="M -2.5,-1.0 C -2.5,1.7600000 -4.7400000,4.0 -7.5,4.0 C -10.260000,4.0 -12.5,1.7600000 -12.5,-1.0 C -12.5,-3.7600000 -10.260000,-6.0 -7.5,-6.0 C -4.7400000,-6.0 -2.5,-3.7600000 -2.5,-1.0 z "
         style="fill-rule:evenodd;stroke:none;stroke-width:1pt;stroke-opacity:1;fill:#333333;fill-opacity:1"
         transform="scale(0.8) translate(7.4, 1)" />
    </marker>
    <marker
       inkscape:stockid="Arrow2Lstart"
       orient="auto"
       refY="0.0"
       refX="0.0"
       id="Arrow2Lstart"
       style="overflow:visible"
       inkscape:isstock="true">
      <path
         id="path9814"
         style="fill-rule:evenodd;stroke-width:0.625;stroke-linejoin:round;stroke:none;stroke-opacity:1;fill:#333333;fill-opacity:1"
         d="M 8.7185878,4.0337352 L -2.2072895,0.016013256 L 8.7185884,-4.0017078 C 6.9730900,-1.6296469 6.9831476,1.6157441 8.7185878,4.0337352 z "
         transform="scale(1.1) translate(1,0)" />
    </marker>
    <marker
       inkscape:stockid="Tail"
       orient="auto"
       refY="0.0"
       refX="0.0"
       id="marker10646"
       style="overflow:visible"
       inkscape:isstock="true">
      <g
         id="g10648"
         transform="scale(-1.2)"
         style="stroke:none;stroke-opacity:1;fill:#333333;fill-opacity:1">
        <path
           id="path10650"
           d="M -3.8048674,-3.9585227 L 0.54352094,0"
           style="fill:#333333;fill-rule:evenodd;stroke:none;stroke-width:0.8;stroke-linecap:round;stroke-opacity:1;fill-opacity:1" />
        <path
           id="path10652"
           d="M -1.2866832,-3.9585227 L 3.0617053,0"
           style="fill:#333333;fill-rule:evenodd;stroke:none;stroke-width:0.8;stroke-linecap:round;stroke-opacity:1;fill-opacity:1" />
        <path
           id="path10654"
           d="M 1.3053582,-3.9585227 L 5.6537466,0"
           style="fill:#333333;fill-rule:evenodd;stroke:none;stroke-width:0.8;stroke-linecap:round;stroke-opacity:1;fill-opacity:1" />
        <path
           id="path10656"
           d="M -3.8048674,4.1775838 L 0.54352094,0.21974226"
           style="fill:#333333;fill-rule:evenodd;stroke:none;stroke-width:0.8;stroke-linecap:round;stroke-opacity:1;fill-opacity:1" />
        <path
           id="path10658"
           d="M -1.2866832,4.1775838 L 3.0617053,0.21974226"
           style="fill:#333333;fill-rule:evenodd;stroke:none;stroke-width:0.8;stroke-linecap:round;stroke-opacity:1;fill-opacity:1" />
        <path
           id="path10660"
           d="M 1.3053582,4.1775838 L 5.6537466,0.21974226"
           style="fill:#333333;fill-rule:evenodd;stroke:none;stroke-width:0.8;stroke-linecap:round;stroke-opacity:1;fill-opacity:1" />
      </g>
    </marker>
    <marker
       inkscape:stockid="Arrow1Send"
       orient="auto"
       refY="0.0"
       refX="0.0"
       id="Arrow1Send"
       style="overflow:visible;"
       inkscape:isstock="true">
      <path
         id="path9811"
         d="M 0.0,0.0 L 5.0,-5.0 L -12.5,0.0 L 5.0,5.0 L 0.0,0.0 z "
         style="fill-rule:evenodd;stroke:none;stroke-width:1pt;stroke-opacity:1;fill:#333333;fill-opacity:1"
         transform="scale(0.2) rotate(180) translate(6,0)" />
    </marker>
    <marker
       inkscape:stockid="Arrow2Lend"
       orient="auto"
       refY="0.0"
       refX="0.0"
       id="Arrow2Lend"
       style="overflow:visible;"
       inkscape:isstock="true">
      <path
         id="path9817"
         style="fill-rule:evenodd;stroke-width:0.625;stroke-linejoin:round;stroke:none;stroke-opacity:1;fill:#333333;fill-opacity:1"
         d="M 8.7185878,4.0337352 L -2.2072895,0.016013256 L 8.7185884,-4.0017078 C 6.9730900,-1.6296469 6.9831476,1.6157441 8.7185878,4.0337352 z "
         transform="scale(1.1) rotate(180) translate(1,0)" />
    </marker>
    <marker
       inkscape:stockid="Arrow1Lend"
       orient="auto"
       refY="0.0"
       refX="0.0"
       id="Arrow1Lend"
       style="overflow:visible;"
       inkscape:isstock="true">
      <path
         id="path9799"
         d="M 0.0,0.0 L 5.0,-5.0 L -12.5,0.0 L 5.0,5.0 L 0.0,0.0 z "
         style="fill-rule:evenodd;stroke:none;stroke-width:1pt;stroke-opacity:1;fill:#333333;fill-opacity:1"
         transform="scale(0.8) rotate(180) translate(12.5,0)" />
    </marker>
    <marker
       inkscape:stockid="DiamondL"
       orient="auto"
       refY="0.0"
       refX="0.0"
       id="DiamondL"
       style="overflow:visible"
       inkscape:isstock="true">
      <path
         id="path9875"
         d="M 0,-7.0710768 L -7.0710894,0 L 0,7.0710589 L 7.0710462,0 L 0,-7.0710768 z "
         style="fill-rule:evenodd;stroke:none;stroke-width:1pt;stroke-opacity:1;fill:#333333;fill-opacity:1"
         transform="scale(0.8)" />
    </marker>
    <marker
       inkscape:stockid="Torso"
       orient="auto"
       refY="0.0"
       refX="0.0"
       id="Torso"
       style="overflow:visible"
       inkscape:isstock="true">
      <g
         id="g10008"
         transform="scale(0.7)"
         style="stroke:none;stroke-opacity:1;fill:#333333;fill-opacity:1">
        <path
           id="path10010"
           d="M -4.7792281,-3.2395420 C -2.4288541,-2.8736027 0.52103922,-1.3019943 0.25792722,0.38794346 C -0.0051877922,2.0778819 -2.2126741,2.6176539 -4.5630471,2.2517169 C -6.9134221,1.8857769 -8.5210350,0.75201414 -8.2579220,-0.93792336 C -7.9948090,-2.6278615 -7.1296041,-3.6054813 -4.7792281,-3.2395420 z "
           style="fill:#333333;fill-opacity:1;fill-rule:evenodd;stroke:none;stroke-width:1.25;stroke-opacity:1" />
        <path
           id="path10012"
           d="M 4.4598789,0.088665736 C -2.5564571,-4.3783320 5.2248769,-3.9061806 -0.84829578,-8.7197331"
           style="fill:#333333;fill-opacity:1;fill-rule:evenodd;stroke:none;stroke-width:1pt;stroke-opacity:1" />
        <path
           id="path10014"
           d="M 4.9298719,0.057520736 C -1.3872731,1.7494689 1.8027579,5.4782079 -4.9448731,7.5462725"
           style="fill:#333333;fill-opacity:1;fill-rule:evenodd;stroke:none;stroke-width:1pt;stroke-opacity:1" />
        <rect
           id="rect10016"
           transform="matrix(0.527536,-0.849533,0.887668,0.460484,0,0)"
           y="-1.7408575"
           x="-10.391706"
           height="2.7608147"
           width="2.6366582"
           style="fill-rule:evenodd;stroke-width:1pt;stroke:none;stroke-opacity:1;fill:#333333;fill-opacity:1" />
        <rect
           id="rect10018"
           transform="matrix(0.671205,-0.741272,0.790802,0.612072,0,0)"
           y="-7.9629307"
           x="4.9587269"
           height="2.8614161"
           width="2.7327356"
           style="fill-rule:evenodd;stroke-width:1pt;stroke:none;stroke-opacity:1;fill:#333333;fill-opacity:1" />
        <path
           id="path10020"
           transform="matrix(0,-1.109517,1.109517,0,25.96648,19.71619)"
           d="M 16.779951 -28.685045 A 0.60731727 0.60731727 0 1 0 15.565317,-28.685045 A 0.60731727 0.60731727 0 1 0 16.779951 -28.685045 z"
           style="fill:#333333;fill-opacity:1;fill-rule:evenodd;stroke:none;stroke-width:1pt;stroke-opacity:1" />
        <path
           id="path10022"
           transform="matrix(0,-1.109517,1.109517,0,26.82450,16.99126)"
           d="M 16.779951 -28.685045 A 0.60731727 0.60731727 0 1 0 15.565317,-28.685045 A 0.60731727 0.60731727 0 1 0 16.779951 -28.685045 z"
           style="fill:#333333;fill-opacity:1;fill-rule:evenodd;stroke:none;stroke-width:1pt;stroke-opacity:1" />
      </g>
    </marker>
    <marker
       inkscape:stockid="EmptyDiamondSstart"
       orient="auto"
       refY="0.0"
       refX="0.0"
       id="EmptyDiamondSstart"
       style="overflow:visible"
       inkscape:isstock="true">
      <path
         id="path9917"
         d="M 0,-7.0710768 L -7.0710894,0 L 0,7.0710589 L 7.0710462,0 L 0,-7.0710768 z "
         style="fill-rule:evenodd;fill:#333333;stroke:none;stroke-width:1pt;stroke-opacity:1;fill-opacity:1"
         transform="scale(0.2) translate(6,0)" />
    </marker>
    <marker
       inkscape:stockid="Tail"
       orient="auto"
       refY="0.0"
       refX="0.0"
       id="Tail"
       style="overflow:visible"
       inkscape:isstock="true">
      <g
         id="g9832"
         transform="scale(-1.2)"
         style="stroke:none;stroke-opacity:1;fill:#333333;fill-opacity:1">
        <path
           id="path9834"
           d="M -3.8048674,-3.9585227 L 0.54352094,0"
           style="fill:#333333;fill-rule:evenodd;stroke:none;stroke-width:0.8;stroke-linecap:round;stroke-opacity:1;fill-opacity:1" />
        <path
           id="path9836"
           d="M -1.2866832,-3.9585227 L 3.0617053,0"
           style="fill:#333333;fill-rule:evenodd;stroke:none;stroke-width:0.8;stroke-linecap:round;stroke-opacity:1;fill-opacity:1" />
        <path
           id="path9838"
           d="M 1.3053582,-3.9585227 L 5.6537466,0"
           style="fill:#333333;fill-rule:evenodd;stroke:none;stroke-width:0.8;stroke-linecap:round;stroke-opacity:1;fill-opacity:1" />
        <path
           id="path9840"
           d="M -3.8048674,4.1775838 L 0.54352094,0.21974226"
           style="fill:#333333;fill-rule:evenodd;stroke:none;stroke-width:0.8;stroke-linecap:round;stroke-opacity:1;fill-opacity:1" />
        <path
           id="path9842"
           d="M -1.2866832,4.1775838 L 3.0617053,0.21974226"
           style="fill:#333333;fill-rule:evenodd;stroke:none;stroke-width:0.8;stroke-linecap:round;stroke-opacity:1;fill-opacity:1" />
        <path
           id="path9844"
           d="M 1.3053582,4.1775838 L 5.6537466,0.21974226"
           style="fill:#333333;fill-rule:evenodd;stroke:none;stroke-width:0.8;stroke-linecap:round;stroke-opacity:1;fill-opacity:1" />
      </g>
    </marker>
  </defs>
  <sodipodi:namedview
     id="base"
     pagecolor="#ffffff"
     bordercolor="#666666"
     borderopacity="1.0"
     inkscape:pageopacity="0.0"
     inkscape:pageshadow="2"
     inkscape:zoom="1.7846285"
     inkscape:cx="331.33072"
     inkscape:cy="531.86261"
     inkscape:document-units="px"
     inkscape:current-layer="layer1"
     showgrid="true"
     inkscape:window-width="1440"
     inkscape:window-height="851"
     inkscape:window-x="-4"
     inkscape:window-y="-4"
     inkscape:window-maximized="1"
     inkscape:snap-bbox="false">
    <inkscape:grid
       type="xygrid"
       id="grid3340" />
  </sodipodi:namedview>
  <metadata
     id="metadata7">
    <rdf:RDF>
      <cc:Work
         rdf:about="">
        <dc:format>image/svg+xml</dc:format>
        <dc:type
           rdf:resource="http://purl.org/dc/dcmitype/StillImage" />
        <dc:title />
      </cc:Work>
    </rdf:RDF>
  </metadata>
  <g
     inkscape:label="Basic Form"
     inkscape:groupmode="layer"
     id="layer1"
     style="display:inline">
    <a
       id="a4561">
      <path
         id="path4559"
         style="opacity:1;fill:#000000;fill-opacity:0;stroke:#000000;stroke-width:0.65682214;stroke-miterlimit:4;stroke-dasharray:none;stroke-opacity:1"
         d="m 350.27475,452.13752 a 19.319754,20.097235 0 0 1 -8.90951,-22.6252 19.319754,20.097235 0 0 1 18.68592,-14.83122 19.319754,20.097235 0 0 1 18.62497,14.91394 19.319754,20.097235 0 0 1 -9.00215,22.58549"
         sodipodi:type="arc"
         sodipodi:start="2.0989044"
         sodipodi:end="1.0469511"
         sodipodi:ry="20.097235"
         sodipodi:rx="19.319754"
         sodipodi:cy="434.77829"
         sodipodi:cx="360.00998"
         sodipodi:open="true" />
    </a>
    <path
       sodipodi:nodetypes="cccccccccccccccccccc"
       inkscape:connector-curvature="0"
       id="path3420"
       d="m 369.99995,451.8622 c 0.58274,40.51947 8.87313,77.96269 8.87313,77.96269 20.3538,27.01918 39.51759,47.13634 56.12687,52.43731 l 0,-69.9 c 0.48322,-9.5836 2.88542,-14.80587 7.5,-15 4.2836,-0.33382 6.92886,4.52975 7.5,15 l 0,140 -15,0 0,-30 c -0.63252,-20.93574 -53.0768,-66.48444 -55,-45 -9.42313,42.50068 -35.38012,36.37681 -39.99995,0 -1.9232,-21.48444 -54.36748,24.06426 -55,45 l 0,30 -15,0 0,-140 c 0.57114,-10.47025 3.2164,-15.33382 7.5,-15 4.61458,0.19413 7.01678,5.4164 7.5,15 l 0,69.9 c 16.60928,-5.30097 35.77307,-25.41813 56.12687,-52.43731 0,0 8.29039,-37.44322 8.87313,-77.96269"
       style="fill:none;fill-rule:evenodd;stroke:#000000;stroke-width:1px;stroke-linecap:butt;stroke-linejoin:miter;stroke-opacity:1" />
  </g>
</svg>
